HIERARCHY
ROOT joint_0
{
	OFFSET 0.000000 0.000000 0.000000
	CHANNELS 6 Xposition Yposition Zposition Zrotation Yrotation Xrotation 
	JOINT joint_1
	{
		OFFSET 0.587158 0.057678 95.682007
		CHANNELS 3 Zrotation Yrotation Xrotation
		JOINT joint_2
		{
			OFFSET -7.116699 -0.219910 87.157959
			CHANNELS 3 Zrotation Yrotation Xrotation
			JOINT joint_3
			{
				OFFSET -5.892822 -0.290222 87.151001
				CHANNELS 3 Zrotation Yrotation Xrotation
				JOINT joint_4
				{
					OFFSET 5.544678 -0.099609 123.768066
					CHANNELS 3 Zrotation Yrotation Xrotation
					JOINT joint_5
					{
						OFFSET 41.981201 4.519775 84.257935
						CHANNELS 3 Zrotation Yrotation Xrotation
						End Site
						{
							OFFSET 0.000000 0.000000 0.000000
						}
					}
				}
				JOINT joint_6
				{
					OFFSET 3.940918 -26.976501 69.308105
					CHANNELS 3 Zrotation Yrotation Xrotation
					JOINT joint_7
					{
						OFFSET 4.776123 -152.592468 -16.842041
						CHANNELS 3 Zrotation Yrotation Xrotation
						JOINT joint_8
						{
							OFFSET 54.421875 -30.424072 -248.864014
							CHANNELS 3 Zrotation Yrotation Xrotation
							JOINT joint_9
							{
								OFFSET 42.120117 -33.387878 -236.524963
								CHANNELS 3 Zrotation Yrotation Xrotation
								End Site
								{
									OFFSET 0.000000 0.000000 0.000000
								}
							}
						}
					}
				}
				JOINT joint_10
				{
					OFFSET 2.312012 26.904114 69.425049
					CHANNELS 3 Zrotation Yrotation Xrotation
					JOINT joint_11
					{
						OFFSET 0.971436 152.197815 -20.626953
						CHANNELS 3 Zrotation Yrotation Xrotation
						JOINT joint_12
						{
							OFFSET 49.954102 28.991455 -249.970093
							CHANNELS 3 Zrotation Yrotation Xrotation
							JOINT joint_13
							{
								OFFSET 48.146973 19.598389 -236.919922
								CHANNELS 3 Zrotation Yrotation Xrotation
								End Site
								{
									OFFSET 0.000000 0.000000 0.000000
								}
							}
						}
					}
				}
			}
		}
	}
	JOINT joint_14
	{
		OFFSET 16.305664 -89.442932 -108.224976
		CHANNELS 3 Zrotation Yrotation Xrotation
		JOINT joint_15
		{
			OFFSET -22.282471 13.437134 -412.904968
			CHANNELS 3 Zrotation Yrotation Xrotation
			JOINT joint_16
			{
				OFFSET -45.426025 14.484802 -445.892029
				CHANNELS 3 Zrotation Yrotation Xrotation
				JOINT joint_17
				{
					OFFSET 173.389404 -9.944031 -76.473001
					CHANNELS 3 Zrotation Yrotation Xrotation
					End Site
					{
						OFFSET 0.000000 0.000000 0.000000
					}
				}
			}
		}
	}
	JOINT joint_18
	{
		OFFSET 13.392822 89.408875 -108.653992
		CHANNELS 3 Zrotation Yrotation Xrotation
		JOINT joint_19
		{
			OFFSET -29.032959 24.483521 -411.977966
			CHANNELS 3 Zrotation Yrotation Xrotation
			JOINT joint_20
			{
				OFFSET -30.530029 28.986328 -446.453018
				CHANNELS 3 Zrotation Yrotation Xrotation
				JOINT joint_21
				{
					OFFSET 170.330078 33.400757 -76.698997
					CHANNELS 3 Zrotation Yrotation Xrotation
					End Site
					{
						OFFSET 0.000000 0.000000 0.000000
					}
				}
			}
		}
	}
}
MOTION
Frames: 9
Frame Time: 0.016667
-1811.417603 827.062317 1062.823975 11.806033 3.306747 1.248026 -0.929807 -3.267921 -1.315568 -0.875682 0.551052 0.272346 -0.918327 -0.592341 -0.157010 -0.410710 1.461673 0.656909 0.000000 0.000000 0.000000 1.115928 1.535748 -0.266918 -0.055819 1.681937 0.303224 0.313496 -2.850103 -0.516721 0.000000 0.000000 0.000000 1.239074 1.453084 0.004087 0.289504 1.318491 0.754078 -0.144820 -1.233095 -0.119216 0.000000 0.000000 0.000000 -7.507406 -3.393326 -0.159320 -7.253389 3.364894 -1.482802 -7.280516 -2.467026 -3.335184 0.000000 0.000000 0.000000 10.185422 -5.508934 -3.068194 10.343951 1.071870 1.083360 10.180817 0.916381 4.432236 0.000000 0.000000 0.000000 
-1811.635498 827.048218 1062.836060 11.807652 3.300802 1.244940 -0.925198 -3.243503 -1.305650 -0.871784 0.550598 0.270189 -0.914170 -0.590672 -0.155713 -0.411814 1.449286 0.660609 0.000000 0.000000 0.000000 1.109775 1.526276 -0.254236 -0.041221 1.671889 0.368144 0.332523 -2.929977 -0.470776 0.000000 0.000000 0.000000 1.233820 1.440723 -0.014168 0.285098 1.306301 0.734124 -0.157574 -1.284310 -0.156216 0.000000 0.000000 0.000000 -7.506857 -3.408765 -0.159551 -7.252011 3.380667 -1.481594 -7.279441 -2.460761 -3.334386 0.000000 0.000000 0.000000 10.184549 -5.524605 -3.067441 10.345408 1.086289 1.086688 10.182578 0.922501 4.431947 0.000000 0.000000 0.000000 
-1811.847656 827.049561 1062.848999 11.807568 3.298209 1.242399 -0.921858 -3.225301 -1.292601 -0.869597 0.549526 0.266896 -0.911565 -0.589038 -0.153381 -0.410657 1.441485 0.659237 0.000000 0.000000 0.000000 1.106742 1.517058 -0.245125 -0.027585 1.662536 0.429603 0.350216 -3.001366 -0.425652 0.000000 0.000000 0.000000 1.235206 1.428156 -0.032462 0.279677 1.292909 0.709416 -0.171355 -1.337370 -0.197233 0.000000 0.000000 0.000000 -7.506124 -3.427348 -0.161824 -7.250665 3.395967 -1.478121 -7.278175 -2.454965 -3.333532 0.000000 0.000000 0.000000 10.184730 -5.540411 -3.069629 10.347422 1.095735 1.090435 10.185119 0.928709 4.432009 0.000000 0.000000 0.000000 
-1812.048950 827.082581 1062.866943 11.802237 3.304340 1.240550 -0.919757 -3.221717 -1.273562 -0.869348 0.548096 0.263895 -0.910960 -0.586801 -0.151609 -0.406717 1.444546 0.650980 0.000000 0.000000 0.000000 1.108626 1.507896 -0.240484 -0.015659 1.653900 0.484806 0.366769 -3.061461 -0.378221 0.000000 0.000000 0.000000 1.247244 1.416464 -0.052515 0.273001 1.278817 0.678541 -0.185897 -1.390656 -0.241780 0.000000 0.000000 0.000000 -7.504796 -3.454112 -0.169680 -7.249447 3.410111 -1.466185 -7.276148 -2.449248 -3.332369 0.000000 0.000000 0.000000 10.187592 -5.557862 -3.076988 10.351313 1.093920 1.093426 10.189954 0.937176 4.432725 0.000000 0.000000 0.000000 
-1812.245483 827.130798 1062.886963 11.794687 3.313480 1.239324 -0.918362 -3.223227 -1.251759 -0.870194 0.545471 0.259867 -0.911306 -0.584487 -0.149048 -0.401757 1.453530 0.639973 0.000000 0.000000 0.000000 1.112888 1.499157 -0.238453 -0.005001 1.646012 0.535235 0.382302 -3.113564 -0.330339 0.000000 0.000000 0.000000 1.264100 1.404339 -0.072808 0.265481 1.263552 0.643876 -0.201513 -1.445538 -0.290664 0.000000 0.000000 0.000000 -7.503246 -3.483872 -0.179832 -7.248244 3.423971 -1.451853 -7.273884 -2.443069 -3.331078 0.000000 0.000000 0.000000 10.191741 -5.575026 -3.087313 10.355948 1.086999 1.096863 10.195806 0.946372 4.433775 0.000000 0.000000 0.000000 
-1812.436890 827.162720 1062.909058 11.791650 3.321753 1.237917 -0.916975 -3.224805 -1.234056 -0.870667 0.542707 0.256551 -0.911346 -0.583025 -0.146736 -0.397965 1.459793 0.631628 0.000000 0.000000 0.000000 1.112101 1.492208 -0.232918 0.004066 1.639199 0.578311 0.395812 -3.158613 -0.288397 0.000000 0.000000 0.000000 1.276640 1.391971 -0.086594 0.257804 1.248661 0.608353 -0.218049 -1.504105 -0.342015 0.000000 0.000000 0.000000 -7.503076 -3.510400 -0.186633 -7.248221 3.434044 -1.441005 -7.272915 -2.435196 -3.330256 0.000000 0.000000 0.000000 10.193923 -5.595531 -3.094624 10.359672 1.087382 1.098731 10.200147 0.953390 4.434547 0.000000 0.000000 0.000000 
-1812.621094 827.158203 1062.932983 11.798589 3.327781 1.235626 -0.915455 -3.224880 -1.223536 -0.870378 0.540752 0.253686 -0.910749 -0.582209 -0.145541 -0.398860 1.459831 0.633403 0.000000 0.000000 0.000000 1.099848 1.486902 -0.218252 0.011437 1.632420 0.612734 0.407071 -3.196193 -0.253458 0.000000 0.000000 0.000000 1.279317 1.378542 -0.086098 0.249174 1.234081 0.568079 -0.235147 -1.565837 -0.394296 0.000000 0.000000 0.000000 -7.505559 -3.529581 -0.186172 -7.250452 3.435996 -1.437070 -7.274383 -2.423583 -3.330289 0.000000 0.000000 0.000000 10.191962 -5.622711 -3.094372 10.361506 1.102423 1.096323 10.201249 0.956152 4.434666 0.000000 0.000000 0.000000 
-1812.798828 827.136780 1062.958984 11.811042 3.333029 1.233278 -0.913106 -3.226573 -1.217400 -0.869011 0.540690 0.249788 -0.908879 -0.582371 -0.142024 -0.401656 1.457530 0.639255 0.000000 0.000000 0.000000 1.078633 1.483455 -0.201090 0.017214 1.626379 0.639677 0.416503 -3.226748 -0.223497 0.000000 0.000000 0.000000 1.274231 1.364275 -0.079926 0.240308 1.219735 0.526679 -0.252911 -1.630523 -0.448113 0.000000 0.000000 0.000000 -7.509627 -3.545457 -0.182372 -7.254067 3.434052 -1.436714 -7.277332 -2.409859 -3.330849 0.000000 0.000000 0.000000 10.187575 -5.653576 -3.091169 10.362019 1.125183 1.092486 10.200455 0.956779 4.434320 0.000000 0.000000 0.000000 
-1812.969116 827.128235 1062.982056 11.819571 3.335074 1.231026 -0.910866 -3.227912 -1.210710 -0.867578 0.541826 0.247848 -0.907257 -0.583632 -0.140790 -0.403327 1.451695 0.643309 0.000000 0.000000 0.000000 1.065436 1.482624 -0.188170 0.021887 1.623930 0.661971 0.422942 -3.249403 -0.204401 0.000000 0.000000 0.000000 1.272028 1.351339 -0.077406 0.233425 1.206455 0.495042 -0.271290 -1.697997 -0.503311 0.000000 0.000000 0.000000 -7.512546 -3.559221 -0.180232 -7.256544 3.435458 -1.436455 -7.279378 -2.397592 -3.331082 0.000000 0.000000 0.000000 10.184749 -5.678002 -3.090123 10.362923 1.144307 1.092055 10.200635 0.957507 4.434361 0.000000 0.000000 0.000000 
